<svg width="32" height="32" viewBox="0 0 32 32" fill="none" xmlns="http://www.w3.org/2000/svg">
<path fill-rule="evenodd" clip-rule="evenodd" d="M9.7739 2.66724H22.2259C26.7606 2.66724 29.3206 5.23924 29.3339 9.7739V22.2272C29.3339 26.7606 26.7606 29.3339 22.2259 29.3339H9.7739C5.23924 29.3339 2.66724 26.7606 2.66724 22.2272V9.7739C2.66724 5.23924 5.23924 2.66724 9.7739 2.66724ZM16.0659 23.8139C16.6406 23.8139 17.1192 23.3872 17.1726 22.8139V9.22724C17.2259 8.8139 17.0272 8.39924 16.6672 8.1739C16.2926 7.94724 15.8392 7.94724 15.4806 8.1739C15.1192 8.39924 14.9206 8.8139 14.9592 9.22724V22.8139C15.0272 23.3872 15.5059 23.8139 16.0659 23.8139ZM22.2006 23.8139C22.7606 23.8139 23.2392 23.3872 23.3072 22.8139V18.4406C23.3459 18.0126 23.1472 17.6139 22.7859 17.3872C22.4272 17.1606 21.9739 17.1606 21.6006 17.3872C21.2392 17.6139 21.0406 18.0126 21.0939 18.4406V22.8139C21.1472 23.3872 21.6259 23.8139 22.2006 23.8139ZM10.9592 22.8139C10.9059 23.3872 10.4272 23.8139 9.85257 23.8139C9.27924 23.8139 8.79924 23.3872 8.74724 22.8139V13.6006C8.70724 13.1859 8.9059 12.7739 9.26724 12.5472C9.6259 12.3206 10.0806 12.3206 10.4406 12.5472C10.7992 12.7739 11.0006 13.1859 10.9592 13.6006V22.8139Z" fill="#EA8225"/>
</svg>
