<svg width="24" height="28" viewBox="0 0 24 28" fill="none" xmlns="http://www.w3.org/2000/svg">
<path fill-rule="evenodd" clip-rule="evenodd" d="M17.8812 1.69157L17.8825 2.69107C21.5554 2.97893 23.9816 5.48168 23.9855 9.31975L24 20.5541C24.0052 24.7387 21.3763 27.3134 17.1624 27.3201L6.86918 27.3334C2.6816 27.3387 0.0197621 24.7027 0.0144963 20.5062L1.54937e-05 9.40371C-0.00525025 5.54031 2.33538 3.04423 6.00823 2.70706L6.00692 1.70757C6.0056 1.12119 6.44003 0.68008 7.01926 0.68008C7.59849 0.678747 8.03291 1.11853 8.03423 1.7049L8.03555 2.63777L15.8552 2.6271L15.8539 1.69424C15.8526 1.10787 16.287 0.668086 16.8662 0.666753C17.4323 0.665421 17.8799 1.1052 17.8812 1.69157ZM2.02865 9.81551L21.9595 9.78885V9.32242C21.9029 6.45719 20.4654 4.95394 17.8851 4.73005L17.8864 5.75621C17.8864 6.32925 17.4402 6.78369 16.8741 6.78369C16.2949 6.78502 15.8591 6.33192 15.8591 5.75887L15.8578 4.67941L8.03818 4.69007L8.0395 5.7682C8.0395 6.34258 7.60639 6.79568 7.02716 6.79568C6.44793 6.79702 6.01219 6.34524 6.01219 5.77086L6.01087 4.74471C3.44382 5.00192 2.02338 6.51049 2.02733 9.40105L2.02865 9.81551ZM16.3199 15.8725V15.8871C16.3331 16.5002 16.8333 16.9653 17.4402 16.9519C18.0326 16.9373 18.5052 16.4295 18.492 15.8165C18.4644 15.2301 17.9891 14.7517 17.398 14.753C16.7925 14.7664 16.3186 15.2594 16.3199 15.8725ZM17.4073 21.8561C16.8017 21.8428 16.3133 21.3377 16.312 20.7247C16.2988 20.1117 16.7846 19.6039 17.3902 19.5893H17.4033C18.022 19.5893 18.5236 20.0944 18.5236 20.7207C18.5249 21.3471 18.0247 21.8548 17.4073 21.8561ZM10.8962 15.8938C10.9225 16.5068 11.4241 16.9852 12.0296 16.9586C12.622 16.9306 13.0946 16.4242 13.0683 15.8112C13.0538 15.2115 12.5667 14.745 11.9743 14.7464C11.3688 14.773 10.8949 15.2808 10.8962 15.8938ZM12.0349 21.7962C11.4293 21.8228 10.9291 21.3444 10.9014 20.7314C10.9014 20.1183 11.374 19.6119 11.9796 19.5839C12.572 19.5826 13.0604 20.049 13.0736 20.6474C13.1012 21.2618 12.6273 21.7682 12.0349 21.7962ZM5.47245 15.9404C5.49878 16.5535 6.00034 17.0332 6.6059 17.0052C7.1983 16.9786 7.6709 16.4708 7.64325 15.8578C7.63009 15.2581 7.14301 14.7917 6.54929 14.793C5.94373 14.8197 5.47113 15.3274 5.47245 15.9404ZM6.61117 21.8028C6.0056 21.8308 5.50536 21.3511 5.47771 20.738C5.4764 20.125 5.95031 19.6173 6.55587 19.5906C7.14827 19.5893 7.63667 20.0557 7.64983 20.6554C7.67748 21.2684 7.20488 21.7762 6.61117 21.8028Z" fill="#EA8225"/>
</svg>
