<svg width="14" height="12" viewBox="0 0 14 12" fill="none" xmlns="http://www.w3.org/2000/svg">
<path d="M12.149 3.16765C12.149 3.16765 12.2941 3.34599 12.5843 3.70267C12.8744 4.05935 13.0195 4.65845 13.0195 5.49997C13.0195 6.34148 12.7294 7.11892 12.149 7.83228C11.5686 8.54563 10.7803 9.10906 9.78404 9.52257C8.78776 9.93607 7.69959 10.1428 6.51953 10.1428C6.18099 10.1428 5.83036 10.1235 5.46763 10.0848C4.51004 10.9311 3.39769 11.5163 2.13058 11.8404C1.8936 11.9081 1.61793 11.9613 1.30357 12C1.22135 12.0096 1.1476 11.9879 1.08231 11.9347C1.01702 11.8815 0.974702 11.8113 0.955357 11.7243V11.717C0.940848 11.6977 0.939639 11.6687 0.95173 11.63C0.963821 11.5913 0.968657 11.5671 0.966239 11.5574C0.963821 11.5478 0.974702 11.5248 0.998884 11.4885C1.02307 11.4523 1.03757 11.4305 1.04241 11.4232C1.04725 11.416 1.06417 11.3954 1.09319 11.3616C1.12221 11.3277 1.14156 11.306 1.15123 11.2963C1.18508 11.2576 1.26004 11.1742 1.37612 11.046C1.49219 10.9178 1.57561 10.826 1.62639 10.7703C1.67718 10.7147 1.75214 10.6192 1.85128 10.4838C1.95043 10.3484 2.02902 10.225 2.08705 10.1138C2.14509 10.0026 2.21038 9.8599 2.28292 9.68579C2.35547 9.51168 2.41834 9.3279 2.47154 9.13445C1.71224 8.70402 1.11375 8.17203 0.67606 7.53847C0.238374 6.90491 0.0195312 6.22541 0.0195312 5.49997C0.0195312 4.87125 0.19122 4.27033 0.534598 3.69723C0.877976 3.12413 1.33984 2.62962 1.9202 2.21369C2.50056 1.79777 3.19215 1.46769 3.99498 1.22346C4.7978 0.979225 5.63932 0.857108 6.51953 0.857108C7.69959 0.857108 8.78776 1.06386 9.78404 1.47736C10.7803 1.89087 11.5686 2.4543 12.149 3.16765Z" fill="#7D8791"/>
</svg>
