<svg width="20" height="18" viewBox="0 0 20 18" fill="none" xmlns="http://www.w3.org/2000/svg">
<path fill-rule="evenodd" clip-rule="evenodd" d="M14.939 0.00292969C16.28 0.00292969 17.57 0.53293 18.519 1.48393C19.469 2.43293 20 3.71293 20 5.05293V12.9529C20 15.7429 17.73 18.0029 14.939 18.0029H5.06C2.269 18.0029 0 15.7429 0 12.9529V5.05293C0 2.26293 2.259 0.00292969 5.06 0.00292969H14.939ZM16.53 6.54293L16.61 6.46293C16.849 6.17293 16.849 5.75293 16.599 5.46293C16.46 5.31393 16.269 5.22293 16.07 5.20293C15.86 5.19193 15.66 5.26293 15.509 5.40293L11 9.00293C10.42 9.48393 9.589 9.48393 9 9.00293L4.5 5.40293C4.189 5.17293 3.759 5.20293 3.5 5.47293C3.23 5.74293 3.2 6.17293 3.429 6.47293L3.56 6.60293L8.11 10.1529C8.67 10.5929 9.349 10.8329 10.06 10.8329C10.769 10.8329 11.46 10.5929 12.019 10.1529L16.53 6.54293Z" fill="#EA8225"/>
</svg>
