<svg width="28" height="28" viewBox="0 0 28 28" fill="none" xmlns="http://www.w3.org/2000/svg">
<path fill-rule="evenodd" clip-rule="evenodd" d="M15.9332 4.50698H20.0265C24.9465 4.50698 27.3465 7.13364 27.3332 12.5203V19.0136C27.3332 24.1603 24.1598 27.3336 18.9998 27.3336H8.9865C3.85317 27.3336 0.666504 24.1603 0.666504 19.0003V8.98698C0.666504 3.46698 3.11984 0.666976 7.95984 0.666976H10.0665C11.3078 0.653642 12.4665 1.22698 13.2265 2.20031L14.3998 3.76031C14.7732 4.22698 15.3332 4.50698 15.9332 4.50698ZM7.8265 18.387H20.1732C20.7198 18.387 21.1598 17.9336 21.1598 17.387C21.1598 16.827 20.7198 16.387 20.1732 16.387H7.8265C7.2665 16.387 6.8265 16.827 6.8265 17.387C6.8265 17.9336 7.2665 18.387 7.8265 18.387Z" fill="white"/>
</svg>
