<svg width="33" height="32" viewBox="0 0 33 32" fill="none" xmlns="http://www.w3.org/2000/svg">
<path fill-rule="evenodd" clip-rule="evenodd" d="M23.4064 5.87996C23.4064 4.10663 24.8464 2.66663 26.6197 2.66663C28.3931 2.66663 29.8331 4.10663 29.8331 5.87996C29.8331 7.65329 28.3931 9.09329 26.6197 9.09329C24.8464 9.09329 23.4064 7.65329 23.4064 5.87996ZM18.2729 19.679L22.1263 14.707L22.0729 14.7337C22.2863 14.4404 22.3263 14.067 22.1796 13.7337C22.0343 13.4004 21.7129 13.1737 21.3676 13.147C21.0063 13.107 20.6476 13.267 20.4329 13.5604L17.2076 17.7337L13.5129 14.827C13.2863 14.6537 13.0196 14.5857 12.7529 14.6137C12.4876 14.6537 12.2476 14.799 12.0863 15.0124L8.14093 20.147L8.05959 20.267C7.83293 20.6924 7.93959 21.239 8.33959 21.5337C8.52626 21.6537 8.72626 21.7337 8.95293 21.7337C9.26093 21.747 9.55293 21.5857 9.73959 21.3337L13.0863 17.0257L16.8863 19.8804L17.0063 19.959C17.4329 20.1857 17.9663 20.0804 18.2729 19.679ZM21.0996 5.04036C21.0463 5.37369 21.0196 5.70703 21.0196 6.04036C21.0196 9.04036 23.4463 11.4657 26.4329 11.4657C26.7663 11.4657 27.0863 11.427 27.4196 11.3737V22.1324C27.4196 26.6537 24.7529 29.3337 20.2196 29.3337H10.3676C5.83293 29.3337 3.16626 26.6537 3.16626 22.1324V12.267C3.16626 7.73369 5.83293 5.04036 10.3676 5.04036H21.0996Z" fill="#EA8225"/>
</svg>
