<svg width="18" height="21" viewBox="0 0 18 21" fill="none" xmlns="http://www.w3.org/2000/svg">
<path fill-rule="evenodd" clip-rule="evenodd" d="M0.5 8.81776C0.5 4.21789 4.34388 0.5 8.99345 0.5C13.6561 0.5 17.5 4.21789 17.5 8.81776C17.5 11.1357 16.657 13.2876 15.2695 15.1116C13.7388 17.1235 11.8522 18.8765 9.72854 20.2524C9.24251 20.5704 8.80387 20.5944 8.27045 20.2524C6.13474 18.8765 4.24809 17.1235 2.7305 15.1116C1.34198 13.2876 0.5 11.1357 0.5 8.81776ZM6.19423 9.07675C6.19423 10.6177 7.45166 11.8297 8.99345 11.8297C10.5362 11.8297 11.8058 10.6177 11.8058 9.07675C11.8058 7.5478 10.5362 6.27683 8.99345 6.27683C7.45166 6.27683 6.19423 7.5478 6.19423 9.07675Z" fill="#EA8225"/>
</svg>
