<svg width="18" height="21" viewBox="0 0 18 21" fill="none" xmlns="http://www.w3.org/2000/svg">
<path fill-rule="evenodd" clip-rule="evenodd" d="M5.92574 14.89H11.3119C11.7178 14.89 12.0545 14.55 12.0545 14.14C12.0545 13.73 11.7178 13.4 11.3119 13.4H5.92574C5.5198 13.4 5.18317 13.73 5.18317 14.14C5.18317 14.55 5.5198 14.89 5.92574 14.89ZM9.27228 8.4H5.92574C5.5198 8.4 5.18317 8.74 5.18317 9.15C5.18317 9.56 5.5198 9.89 5.92574 9.89H9.27228C9.67822 9.89 10.0149 9.56 10.0149 9.15C10.0149 8.74 9.67822 8.4 9.27228 8.4ZM16.3381 7.52561C16.5708 7.52292 16.8242 7.52 17.0545 7.52C17.302 7.52 17.5 7.72 17.5 7.97V16.01C17.5 18.49 15.5099 20.5 13.0545 20.5H5.17327C2.59901 20.5 0.5 18.39 0.5 15.79V5.01C0.5 2.53 2.5 0.5 4.96535 0.5H10.2525C10.5099 0.5 10.7079 0.71 10.7079 0.96V4.18C10.7079 6.01 12.203 7.51 14.0149 7.52C14.4381 7.52 14.8112 7.52316 15.1377 7.52593C15.3917 7.52809 15.6175 7.53 15.8168 7.53C15.9578 7.53 16.1405 7.52789 16.3381 7.52561ZM16.6111 6.066C15.7972 6.069 14.8378 6.066 14.1477 6.059C13.0527 6.059 12.1507 5.148 12.1507 4.042V1.406C12.1507 0.975 12.6685 0.761 12.9646 1.072C13.5004 1.63476 14.2368 2.40834 14.9699 3.17837C15.7009 3.94632 16.4286 4.71074 16.9507 5.259C17.2398 5.562 17.0279 6.065 16.6111 6.066Z" fill="#EA8225"/>
</svg>
