<svg width="10" height="11" viewBox="0 0 10 11" fill="none" xmlns="http://www.w3.org/2000/svg">
<path d="M9.42573 8.86203C9.42573 9.39044 9.26501 9.80766 8.94356 10.1137C8.62211 10.4197 8.19498 10.5728 7.66217 10.5728H1.8893C1.35649 10.5728 0.929355 10.4197 0.607906 10.1137C0.286457 9.80766 0.125732 9.39044 0.125732 8.86203C0.125732 8.62865 0.133438 8.40077 0.14885 8.1784C0.164262 7.95603 0.195086 7.71604 0.241322 7.45844C0.287558 7.20084 0.345903 6.96196 0.416357 6.74179C0.486812 6.52162 0.581485 6.30695 0.700377 6.09779C0.819269 5.88863 0.955775 5.71029 1.10989 5.56278C1.26401 5.41526 1.45226 5.29747 1.67463 5.2094C1.897 5.12133 2.14249 5.0773 2.4111 5.0773C2.45073 5.0773 2.5432 5.12464 2.68852 5.21931C2.83383 5.31398 2.99786 5.41966 3.1806 5.53636C3.36334 5.65305 3.60112 5.75873 3.89395 5.8534C4.18678 5.94807 4.4807 5.99541 4.77573 5.99541C5.07076 5.99541 5.36469 5.94807 5.65752 5.8534C5.95034 5.75873 6.18813 5.65305 6.37087 5.53636C6.55361 5.41966 6.71764 5.31398 6.86295 5.21931C7.00826 5.12464 7.10073 5.0773 7.14036 5.0773C7.40897 5.0773 7.65446 5.12133 7.87683 5.2094C8.09921 5.29747 8.28745 5.41526 8.44157 5.56278C8.59569 5.71029 8.7322 5.88863 8.85109 6.09779C8.96998 6.30695 9.06465 6.52162 9.13511 6.74179C9.20556 6.96196 9.26391 7.20084 9.31014 7.45844C9.35638 7.71604 9.3872 7.95603 9.40261 8.1784C9.41803 8.40077 9.42573 8.62865 9.42573 8.86203ZM6.56902 1.17037C6.56902 1.17037 6.69287 1.29422 6.94056 1.54191C7.18825 1.7896 7.3121 2.26352 7.3121 2.96366C7.3121 3.66381 7.0644 4.26157 6.56902 4.75695C6.07364 5.25234 5.47587 5.50003 4.77573 5.50003C4.07559 5.50003 3.47783 5.25234 2.98244 4.75695C2.48706 4.26157 2.23937 3.66381 2.23937 2.96366C2.23937 2.26352 2.48706 1.66576 2.98244 1.17037C3.47783 0.674992 4.07559 0.427299 4.77573 0.427299C5.47587 0.427299 6.07364 0.674992 6.56902 1.17037Z" fill="#7D8791"/>
</svg>
