<svg width="24" height="25" viewBox="0 0 24 25" fill="none" xmlns="http://www.w3.org/2000/svg">
<path fill-rule="evenodd" clip-rule="evenodd" d="M12.3264 2.70966C12.4861 2.56632 12.6973 2.49119 12.9135 2.50082C17.4843 2.63765 21.3044 5.9558 21.9967 10.3906C22.0011 10.4171 22.0011 10.4441 21.9967 10.4706C22.0116 10.6804 21.9407 10.8874 21.7996 11.0458C21.6586 11.2043 21.459 11.301 21.2451 11.3147L13.5656 11.8211C13.3116 11.8436 13.0597 11.76 12.8718 11.5909C12.6839 11.4218 12.5774 11.1828 12.5785 10.9326L12.0623 3.38932V3.26493C12.0717 3.05278 12.1667 2.853 12.3264 2.70966ZM11.7997 13.7936L18.4558 13.3671L18.5011 13.3848C18.7869 13.3895 19.0591 13.5054 19.2579 13.707C19.4566 13.9087 19.5655 14.1795 19.5606 14.4599C19.2984 18.282 16.4962 21.4755 12.6828 22.2982C8.86938 23.121 4.96017 21.3754 3.08778 18.0139C2.53722 17.0457 2.1893 15.9794 2.06445 14.8775C2.01603 14.551 1.99483 14.2212 2.00106 13.8913C2.01368 9.82706 4.90728 6.31907 8.95607 5.4595C9.4462 5.36776 9.93762 5.61248 10.1515 6.05479C10.2047 6.13505 10.2473 6.22164 10.2782 6.31245C10.3541 7.48405 10.4329 8.64455 10.5113 9.80015C10.5732 10.7128 10.6349 11.6223 10.6948 12.5319C10.6917 12.7462 10.7254 12.9594 10.7944 13.1627C10.9569 13.5627 11.3614 13.8165 11.7997 13.7936Z" fill="#EA8225"/>
</svg>
