<svg width="17" height="14" viewBox="0 0 17 14" fill="none" xmlns="http://www.w3.org/2000/svg">
<path d="M10.6008 1.33301C11.1408 1.0442 11.7611 0.94114 12.3655 1.04004C12.9699 1.13899 13.5248 1.43488 13.9446 1.88086L14.134 2.08203L14.4055 2.02832C14.6241 1.98509 14.8401 1.93055 15.053 1.86719C14.9398 1.96238 14.8199 2.05103 14.6917 2.12793L15.0071 3.05371C15.1094 3.04182 15.2112 3.02615 15.3127 3.00977C15.1807 3.12352 15.0442 3.2335 14.9026 3.33594L14.6848 3.49316L14.6965 3.7627C14.7024 3.89577 14.7053 4.03264 14.7053 4.16602C14.7051 8.28748 11.569 13.0039 5.86646 13.0039C4.83149 13.0044 3.81007 12.8224 2.84692 12.4717C3.99296 12.2715 5.0793 11.7919 6.00415 11.0654L7.10474 10.2002L5.70532 10.1719C5.12474 10.1602 4.56182 9.96774 4.09595 9.62109C3.8422 9.43223 3.62527 9.2015 3.45044 8.94238C3.71736 8.92811 3.98291 8.8874 4.24243 8.81641L4.20923 7.84375C3.57932 7.71689 3.01263 7.37621 2.60571 6.87891C2.35775 6.57586 2.1796 6.22585 2.07739 5.85352C2.36071 5.93036 2.65302 5.97499 2.94849 5.98438L4.6936 6.03906L3.24243 5.06836C2.65384 4.67465 2.23734 4.07166 2.07739 3.38184C1.97293 2.93111 1.98403 2.46589 2.10278 2.02637C2.86573 2.81968 3.75522 3.48322 4.74048 3.98242C5.96823 4.60447 7.31313 4.96127 8.68774 5.03027L9.34888 5.06348L9.20044 4.41895C9.06246 3.82222 9.12497 3.19635 9.37817 2.63867C9.63139 2.08105 10.0608 1.62185 10.6008 1.33301Z" fill="#EA8225" stroke="#EA8225"/>
</svg>
