<svg width="16" height="14" viewBox="0 0 16 14" fill="none" xmlns="http://www.w3.org/2000/svg">
<path d="M9.76758 1.33203C10.3076 1.04323 10.9279 0.940164 11.5322 1.03906C12.1366 1.13801 12.6916 1.43391 13.1113 1.87988L13.3008 2.08105L13.5723 2.02734C13.7908 1.98412 14.0068 1.92958 14.2197 1.86621C14.1065 1.96141 13.9867 2.05005 13.8584 2.12695L14.1738 3.05273C14.2762 3.04084 14.3779 3.02518 14.4795 3.00879C14.3474 3.12255 14.211 3.23252 14.0693 3.33496L13.8516 3.49219L13.8633 3.76172C13.8692 3.89479 13.8721 4.03166 13.8721 4.16504C13.8719 8.28651 10.7357 13.0029 5.0332 13.0029C3.99824 13.0035 2.97681 12.8214 2.01367 12.4707C3.15971 12.2705 4.24605 11.7909 5.1709 11.0645L6.27148 10.1992L4.87207 10.1709C4.29149 10.1592 3.72857 9.96676 3.2627 9.62012C3.00895 9.43126 2.79202 9.20052 2.61719 8.94141C2.88411 8.92714 3.14966 8.88642 3.40918 8.81543L3.37598 7.84277C2.74606 7.71591 2.17938 7.37523 1.77246 6.87793C1.5245 6.57488 1.34635 6.22488 1.24414 5.85254C1.52746 5.92938 1.81977 5.97402 2.11523 5.9834L3.86035 6.03809L2.40918 5.06738C1.82059 4.67368 1.40409 4.07069 1.24414 3.38086C1.13968 2.93013 1.15077 2.46491 1.26953 2.02539C2.03248 2.81871 2.92197 3.48224 3.90723 3.98145C5.13498 4.60349 6.47988 4.96029 7.85449 5.0293L8.51562 5.0625L8.36719 4.41797C8.22921 3.82124 8.29172 3.19538 8.54492 2.6377C8.79814 2.08007 9.22755 1.62088 9.76758 1.33203Z" fill="white" stroke="white"/>
</svg>
