<svg width="25" height="24" viewBox="0 0 25 24" fill="none" xmlns="http://www.w3.org/2000/svg">
<g clip-path="url(#clip0_289_2584)">
<path d="M1.1007 11.8564C1.10014 13.8728 1.62702 15.8418 2.62888 17.5772L1.00488 23.5067L7.07298 21.9156C8.75133 22.8293 10.6318 23.3081 12.5427 23.3082H12.5478C18.8561 23.3082 23.9913 18.1749 23.994 11.8654C23.9952 8.80798 22.8056 5.93301 20.6443 3.77003C18.4834 1.60724 15.6094 0.415519 12.5473 0.414124C6.23819 0.414124 1.10339 5.54715 1.10079 11.8564" fill="url(#paint0_linear_289_2584)"/>
<path d="M0.692308 11.8527C0.691657 13.9417 1.23742 15.981 2.27501 17.7786L0.592773 23.9207L6.87845 22.2726C8.61035 23.2168 10.5603 23.7147 12.5445 23.7154H12.5496C19.0843 23.7154 24.4039 18.3975 24.4067 11.8621C24.4078 8.69488 23.1755 5.71656 20.937 3.47609C18.6982 1.23591 15.7214 0.00130233 12.5496 0C6.0138 0 0.694913 5.31721 0.692308 11.8527ZM4.43566 17.469L4.20096 17.0965C3.21435 15.5277 2.69361 13.7149 2.69435 11.8534C2.6964 6.4213 7.11724 2.00186 12.5533 2.00186C15.1859 2.00298 17.6599 3.02921 19.5208 4.89116C21.3815 6.7533 22.4054 9.22865 22.4048 11.8614C22.4024 17.2935 17.9814 21.7135 12.5496 21.7135H12.5457C10.7771 21.7126 9.04245 21.2376 7.5297 20.34L7.1697 20.1265L3.43966 21.1045L4.43566 17.469Z" fill="url(#paint1_linear_289_2584)"/>
<path d="M9.58581 6.89746C9.36386 6.40416 9.13027 6.39421 8.9192 6.38556C8.74637 6.37811 8.54879 6.37867 8.35139 6.37867C8.15381 6.37867 7.83279 6.453 7.56144 6.74928C7.28981 7.04583 6.52441 7.76249 6.52441 9.22007C6.52441 10.6777 7.58609 12.0864 7.73409 12.2843C7.88227 12.4817 9.78367 15.5686 12.795 16.7562C15.2977 17.743 15.807 17.5468 16.3502 17.4973C16.8934 17.448 18.1031 16.7808 18.3499 16.089C18.5969 15.3973 18.5969 14.8043 18.5228 14.6804C18.4488 14.557 18.2512 14.4829 17.9549 14.3348C17.6586 14.1866 16.202 13.4698 15.9305 13.371C15.6588 13.2722 15.4613 13.2229 15.2638 13.5195C15.0662 13.8157 14.4988 14.4829 14.3259 14.6804C14.1532 14.8785 13.9802 14.9031 13.684 14.755C13.3876 14.6063 12.4334 14.2938 11.3014 13.2846C10.4207 12.4993 9.82609 11.5296 9.65325 11.2329C9.48041 10.9367 9.63474 10.7762 9.7833 10.6285C9.91641 10.4958 10.0797 10.2826 10.2279 10.1096C10.3757 9.93663 10.425 9.81318 10.5238 9.6156C10.6226 9.41783 10.5732 9.24481 10.4992 9.09663C10.425 8.94844 9.84925 7.48323 9.58581 6.89746Z" fill="white"/>
</g>
<defs>
<linearGradient id="paint0_linear_289_2584" x1="1150.46" y1="2309.67" x2="1150.46" y2="0.414124" gradientUnits="userSpaceOnUse">
<stop stop-color="#1FAF38"/>
<stop offset="1" stop-color="#60D669"/>
</linearGradient>
<linearGradient id="paint1_linear_289_2584" x1="1191.29" y1="2392.07" x2="1191.29" y2="0" gradientUnits="userSpaceOnUse">
<stop stop-color="#F9F9F9"/>
<stop offset="1" stop-color="white"/>
</linearGradient>
<clipPath id="clip0_289_2584">
<rect width="23.814" height="24" fill="white" transform="translate(0.592773)"/>
</clipPath>
</defs>
</svg>
