<svg width="14" height="14" viewBox="0 0 14 14" fill="none" xmlns="http://www.w3.org/2000/svg">
<path d="M7.00066 0.336426C10.6827 0.336426 13.6673 3.32109 13.6673 7.00309C13.6673 10.6851 10.6827 13.6698 7.00066 13.6698C5.82251 13.6717 4.6651 13.3599 3.64733 12.7664L0.33666 13.6698L1.23799 10.3578C0.644056 9.33968 0.332025 8.18176 0.333994 7.00309C0.333994 3.32109 3.31866 0.336426 7.00066 0.336426ZM4.72866 3.86976L4.59533 3.87509C4.50901 3.88035 4.42465 3.90303 4.34733 3.94176C4.27501 3.98271 4.20899 4.03391 4.15133 4.09376C4.07133 4.16909 4.02599 4.23443 3.97733 4.29776C3.73074 4.61836 3.59798 5.01197 3.59999 5.41643C3.60133 5.74309 3.68666 6.06109 3.81999 6.35843C4.09266 6.95976 4.54133 7.59643 5.13333 8.18643C5.27599 8.32843 5.41599 8.47109 5.56666 8.60376C6.30225 9.2514 7.17883 9.71845 8.12666 9.96776L8.50533 10.0258C8.62866 10.0324 8.75199 10.0231 8.87599 10.0171C9.07015 10.0071 9.25974 9.9545 9.43133 9.86309C9.51863 9.81812 9.60383 9.76918 9.68666 9.71643C9.68666 9.71643 9.71533 9.69776 9.76999 9.65643C9.85999 9.58976 9.91533 9.54243 9.98999 9.46443C10.0453 9.40709 10.0933 9.33976 10.13 9.26309C10.182 9.15443 10.234 8.94709 10.2553 8.77443C10.2713 8.64243 10.2667 8.57043 10.2647 8.52576C10.262 8.45443 10.2027 8.38043 10.138 8.34909L9.74999 8.17509C9.74999 8.17509 9.16999 7.92243 8.81533 7.76109C8.77821 7.74489 8.73845 7.73562 8.69799 7.73376C8.65238 7.72907 8.60629 7.73421 8.56283 7.74881C8.51936 7.76341 8.47953 7.78715 8.44599 7.81843C8.44266 7.81709 8.39799 7.85509 7.91599 8.43909C7.88833 8.47627 7.85022 8.50436 7.80653 8.5198C7.76284 8.53523 7.71554 8.53731 7.67066 8.52576C7.62723 8.51411 7.58468 8.49941 7.54333 8.48176C7.46066 8.44709 7.43199 8.43376 7.37533 8.40976C6.99271 8.24279 6.63845 8.01719 6.32533 7.74109C6.24133 7.66776 6.16333 7.58776 6.08333 7.51043C5.82105 7.25925 5.59248 6.9751 5.40333 6.66509L5.36399 6.60176C5.33574 6.5592 5.3129 6.51329 5.29599 6.46509C5.27066 6.36709 5.33666 6.28843 5.33666 6.28843C5.33666 6.28843 5.49866 6.11109 5.57399 6.01509C5.64733 5.92176 5.70933 5.83109 5.74933 5.76643C5.82799 5.63976 5.85266 5.50976 5.81133 5.40909C5.62466 4.95309 5.43133 4.49909 5.23266 4.04843C5.19333 3.95909 5.07666 3.89509 4.97066 3.88243C4.93466 3.87843 4.89866 3.87443 4.86266 3.87176C4.77313 3.86731 4.68342 3.8682 4.59399 3.87443L4.72866 3.86976Z" fill="white"/>
</svg>
