<svg width="14" height="14" viewBox="0 0 14 14" fill="none" xmlns="http://www.w3.org/2000/svg">
<path d="M6.83391 0.337402C10.5159 0.337402 13.5006 3.32207 13.5006 7.00407C13.5006 10.6861 10.5159 13.6707 6.83391 13.6707C5.65576 13.6726 4.49835 13.3608 3.48058 12.7674L0.169912 13.6707L1.07125 10.3587C0.477308 9.34065 0.165277 8.18273 0.167246 7.00407C0.167246 3.32207 3.15191 0.337402 6.83391 0.337402ZM4.56191 3.87074L4.42858 3.87607C4.34226 3.88133 4.2579 3.904 4.18058 3.94274C4.10826 3.98369 4.04224 4.03489 3.98458 4.09474C3.90458 4.17007 3.85925 4.2354 3.81058 4.29874C3.56399 4.61934 3.43123 5.01294 3.43325 5.4174C3.43458 5.74407 3.51991 6.06207 3.65325 6.3594C3.92591 6.96074 4.37458 7.5974 4.96658 8.1874C5.10925 8.3294 5.24925 8.47207 5.39991 8.60474C6.13551 9.25238 7.01208 9.71943 7.95991 9.96874L8.33858 10.0267C8.46191 10.0334 8.58525 10.0241 8.70925 10.0181C8.90341 10.008 9.09299 9.95547 9.26458 9.86407C9.35188 9.8191 9.43708 9.77016 9.51991 9.7174C9.51991 9.7174 9.54858 9.69874 9.60325 9.6574C9.69325 9.59074 9.74858 9.5434 9.82325 9.4654C9.87858 9.40807 9.92658 9.34074 9.96325 9.26407C10.0152 9.1554 10.0672 8.94807 10.0886 8.7754C10.1046 8.6434 10.0999 8.5714 10.0979 8.52674C10.0952 8.4554 10.0359 8.3814 9.97125 8.35007L9.58325 8.17607C9.58325 8.17607 9.00325 7.9234 8.64858 7.76207C8.61147 7.74586 8.5717 7.7366 8.53125 7.73474C8.48563 7.73005 8.43954 7.73518 8.39608 7.74979C8.35261 7.76439 8.31278 7.78813 8.27925 7.8194C8.27591 7.81807 8.23125 7.85607 7.74925 8.44007C7.72158 8.47724 7.68347 8.50534 7.63978 8.52077C7.59609 8.53621 7.54879 8.53828 7.50391 8.52674C7.46048 8.51509 7.41793 8.50039 7.37658 8.48274C7.29391 8.44807 7.26525 8.43474 7.20858 8.41074C6.82596 8.24377 6.4717 8.01817 6.15858 7.74207C6.07458 7.66874 5.99658 7.58874 5.91658 7.5114C5.6543 7.26022 5.42573 6.97607 5.23658 6.66607L5.19725 6.60274C5.16899 6.56018 5.14615 6.51427 5.12925 6.46607C5.10391 6.36807 5.16991 6.2894 5.16991 6.2894C5.16991 6.2894 5.33191 6.11207 5.40725 6.01607C5.48058 5.92274 5.54258 5.83207 5.58258 5.7674C5.66125 5.64074 5.68591 5.51074 5.64458 5.41007C5.45791 4.95407 5.26458 4.50007 5.06591 4.0494C5.02658 3.96007 4.90991 3.89607 4.80391 3.8834C4.76791 3.8794 4.73191 3.8754 4.69591 3.87274C4.60638 3.86829 4.51667 3.86918 4.42725 3.8754L4.56191 3.87074Z" fill="#EA8225"/>
</svg>
